<mxfile host="app.diagrams.net" agent="Mozilla/5.0 (Windows NT 10.0; Win64; x64) AppleWebKit/537.36 (KHTML, like Gecko) Chrome/131.0.0.0 Safari/537.36 Edg/131.0.0.0" version="24.8.6">
  <diagram name="第 1 页" id="he4iKxCm5umVUoL6oid-">
    <mxGraphModel dx="1169" dy="1663" grid="0" gridSize="10" guides="1" tooltips="1" connect="1" arrows="1" fold="1" page="0" pageScale="1" pageWidth="827" pageHeight="1169" math="0" shadow="0">
      <root>
        <mxCell id="0" />
        <mxCell id="1" parent="0" />
        <mxCell id="Rin7xcSolppz4vYMrdlY-1" value="Teacher" style="rounded=0;whiteSpace=wrap;html=1;movable=1;resizable=1;rotatable=1;deletable=1;editable=1;locked=0;connectable=1;" vertex="1" parent="1">
          <mxGeometry x="133" y="-368" width="133" height="40" as="geometry" />
        </mxCell>
        <mxCell id="Rin7xcSolppz4vYMrdlY-3" value="Class" style="rounded=0;whiteSpace=wrap;html=1;" vertex="1" parent="1">
          <mxGeometry x="133" y="-187" width="133" height="40" as="geometry" />
        </mxCell>
        <mxCell id="Rin7xcSolppz4vYMrdlY-4" value="教" style="rhombus;whiteSpace=wrap;html=1;movable=1;resizable=1;rotatable=1;deletable=1;editable=1;locked=0;connectable=1;" vertex="1" parent="1">
          <mxGeometry x="143.25" y="-287" width="112.5" height="59" as="geometry" />
        </mxCell>
        <mxCell id="Rin7xcSolppz4vYMrdlY-5" value="包含" style="rhombus;whiteSpace=wrap;html=1;movable=1;resizable=1;rotatable=1;deletable=1;editable=1;locked=0;connectable=1;" vertex="1" parent="1">
          <mxGeometry x="143.25" y="-106" width="112.5" height="59" as="geometry" />
        </mxCell>
        <mxCell id="Rin7xcSolppz4vYMrdlY-7" value="Student" style="rounded=0;whiteSpace=wrap;html=1;" vertex="1" parent="1">
          <mxGeometry x="133" y="-6" width="133" height="40" as="geometry" />
        </mxCell>
        <mxCell id="Rin7xcSolppz4vYMrdlY-8" value="" style="endArrow=none;html=1;rounded=0;fontSize=12;startSize=8;endSize=8;curved=1;exitX=0.5;exitY=0;exitDx=0;exitDy=0;entryX=0.5;entryY=1;entryDx=0;entryDy=0;" edge="1" parent="1" source="Rin7xcSolppz4vYMrdlY-4" target="Rin7xcSolppz4vYMrdlY-1">
          <mxGeometry width="50" height="50" relative="1" as="geometry">
            <mxPoint x="85" y="-95" as="sourcePoint" />
            <mxPoint x="84" y="-295" as="targetPoint" />
          </mxGeometry>
        </mxCell>
        <mxCell id="Rin7xcSolppz4vYMrdlY-9" value="" style="endArrow=none;html=1;rounded=0;fontSize=12;startSize=8;endSize=8;curved=1;entryX=0.5;entryY=1;entryDx=0;entryDy=0;exitX=0.5;exitY=0;exitDx=0;exitDy=0;" edge="1" parent="1" source="Rin7xcSolppz4vYMrdlY-3" target="Rin7xcSolppz4vYMrdlY-4">
          <mxGeometry width="50" height="50" relative="1" as="geometry">
            <mxPoint x="85" y="-95" as="sourcePoint" />
            <mxPoint x="135" y="-145" as="targetPoint" />
          </mxGeometry>
        </mxCell>
        <mxCell id="Rin7xcSolppz4vYMrdlY-10" value="" style="endArrow=none;html=1;rounded=0;fontSize=12;startSize=8;endSize=8;curved=1;entryX=0.5;entryY=1;entryDx=0;entryDy=0;exitX=0.5;exitY=0;exitDx=0;exitDy=0;" edge="1" parent="1" source="Rin7xcSolppz4vYMrdlY-5" target="Rin7xcSolppz4vYMrdlY-3">
          <mxGeometry width="50" height="50" relative="1" as="geometry">
            <mxPoint x="85" y="-94" as="sourcePoint" />
            <mxPoint x="135" y="-144" as="targetPoint" />
          </mxGeometry>
        </mxCell>
        <mxCell id="Rin7xcSolppz4vYMrdlY-11" value="" style="endArrow=none;html=1;rounded=0;fontSize=12;startSize=8;endSize=8;curved=1;entryX=0.5;entryY=1;entryDx=0;entryDy=0;exitX=0.5;exitY=0;exitDx=0;exitDy=0;" edge="1" parent="1" source="Rin7xcSolppz4vYMrdlY-7" target="Rin7xcSolppz4vYMrdlY-5">
          <mxGeometry width="50" height="50" relative="1" as="geometry">
            <mxPoint x="85" y="-94" as="sourcePoint" />
            <mxPoint x="135" y="-144" as="targetPoint" />
          </mxGeometry>
        </mxCell>
        <mxCell id="Rin7xcSolppz4vYMrdlY-13" value="1" style="text;html=1;align=center;verticalAlign=middle;resizable=0;points=[];autosize=1;strokeColor=none;fillColor=none;fontSize=16;" vertex="1" parent="1">
          <mxGeometry x="196.5" y="-319.5" width="27" height="31" as="geometry" />
        </mxCell>
        <mxCell id="Rin7xcSolppz4vYMrdlY-14" value="n" style="text;html=1;align=center;verticalAlign=middle;resizable=0;points=[];autosize=1;strokeColor=none;fillColor=none;fontSize=16;" vertex="1" parent="1">
          <mxGeometry x="195.5" y="-224.5" width="27" height="31" as="geometry" />
        </mxCell>
        <mxCell id="Rin7xcSolppz4vYMrdlY-15" value="1" style="text;html=1;align=center;verticalAlign=middle;resizable=0;points=[];autosize=1;strokeColor=none;fillColor=none;fontSize=16;" vertex="1" parent="1">
          <mxGeometry x="196.5" y="-141.5" width="27" height="31" as="geometry" />
        </mxCell>
        <mxCell id="Rin7xcSolppz4vYMrdlY-16" value="n" style="text;html=1;align=center;verticalAlign=middle;resizable=0;points=[];autosize=1;strokeColor=none;fillColor=none;fontSize=16;" vertex="1" parent="1">
          <mxGeometry x="197.5" y="-42.5" width="27" height="31" as="geometry" />
        </mxCell>
        <mxCell id="Rin7xcSolppz4vYMrdlY-17" value="Course" style="rounded=0;whiteSpace=wrap;html=1;movable=1;resizable=1;rotatable=1;deletable=1;editable=1;locked=0;connectable=1;" vertex="1" parent="1">
          <mxGeometry x="-171" y="-277.5" width="133" height="40" as="geometry" />
        </mxCell>
        <mxCell id="Rin7xcSolppz4vYMrdlY-18" value="对应" style="rhombus;whiteSpace=wrap;html=1;movable=1;resizable=1;rotatable=1;deletable=1;editable=1;locked=0;connectable=1;" vertex="1" parent="1">
          <mxGeometry x="-160.75" y="-15.5" width="112.5" height="59" as="geometry" />
        </mxCell>
        <mxCell id="Rin7xcSolppz4vYMrdlY-19" value="Grades" style="rounded=0;whiteSpace=wrap;html=1;movable=1;resizable=1;rotatable=1;deletable=1;editable=1;locked=0;connectable=1;" vertex="1" parent="1">
          <mxGeometry x="-171" y="80" width="133" height="40" as="geometry" />
        </mxCell>
        <mxCell id="Rin7xcSolppz4vYMrdlY-20" value="属于" style="rhombus;whiteSpace=wrap;html=1;movable=1;resizable=1;rotatable=1;deletable=1;editable=1;locked=0;connectable=1;" vertex="1" parent="1">
          <mxGeometry x="445" y="-196.5" width="112.5" height="59" as="geometry" />
        </mxCell>
        <mxCell id="Rin7xcSolppz4vYMrdlY-21" value="制定" style="rhombus;whiteSpace=wrap;html=1;movable=1;resizable=1;rotatable=1;deletable=1;editable=1;locked=0;connectable=1;" vertex="1" parent="1">
          <mxGeometry x="445" y="-15.5" width="112.5" height="59" as="geometry" />
        </mxCell>
        <mxCell id="Rin7xcSolppz4vYMrdlY-22" value="Major" style="rounded=0;whiteSpace=wrap;html=1;" vertex="1" parent="1">
          <mxGeometry x="434.75" y="-96.5" width="133" height="40" as="geometry" />
        </mxCell>
        <mxCell id="Rin7xcSolppz4vYMrdlY-23" value="Plan" style="rounded=0;whiteSpace=wrap;html=1;" vertex="1" parent="1">
          <mxGeometry x="661" y="-6" width="133" height="40" as="geometry" />
        </mxCell>
        <mxCell id="Rin7xcSolppz4vYMrdlY-24" value="" style="endArrow=none;html=1;rounded=0;fontSize=12;startSize=8;endSize=8;curved=1;entryX=0;entryY=0.5;entryDx=0;entryDy=0;exitX=1;exitY=0.5;exitDx=0;exitDy=0;" edge="1" parent="1" source="Rin7xcSolppz4vYMrdlY-17" target="Rin7xcSolppz4vYMrdlY-4">
          <mxGeometry width="50" height="50" relative="1" as="geometry">
            <mxPoint x="170" y="34" as="sourcePoint" />
            <mxPoint x="220" y="-16" as="targetPoint" />
          </mxGeometry>
        </mxCell>
        <mxCell id="Rin7xcSolppz4vYMrdlY-25" value="" style="endArrow=none;html=1;rounded=0;fontSize=12;startSize=8;endSize=8;curved=1;entryX=0.5;entryY=1;entryDx=0;entryDy=0;exitX=0.5;exitY=0;exitDx=0;exitDy=0;" edge="1" parent="1" source="Rin7xcSolppz4vYMrdlY-18" target="Rin7xcSolppz4vYMrdlY-17">
          <mxGeometry width="50" height="50" relative="1" as="geometry">
            <mxPoint x="170" y="34" as="sourcePoint" />
            <mxPoint x="220" y="-16" as="targetPoint" />
          </mxGeometry>
        </mxCell>
        <mxCell id="Rin7xcSolppz4vYMrdlY-26" value="" style="endArrow=none;html=1;rounded=0;fontSize=12;startSize=8;endSize=8;curved=1;entryX=0.5;entryY=1;entryDx=0;entryDy=0;exitX=0.5;exitY=0;exitDx=0;exitDy=0;" edge="1" parent="1" source="Rin7xcSolppz4vYMrdlY-19" target="Rin7xcSolppz4vYMrdlY-18">
          <mxGeometry width="50" height="50" relative="1" as="geometry">
            <mxPoint x="170" y="34" as="sourcePoint" />
            <mxPoint x="220" y="-16" as="targetPoint" />
          </mxGeometry>
        </mxCell>
        <mxCell id="Rin7xcSolppz4vYMrdlY-28" value="" style="endArrow=none;html=1;rounded=0;fontSize=12;startSize=8;endSize=8;curved=1;entryX=0;entryY=0.5;entryDx=0;entryDy=0;exitX=1;exitY=0.5;exitDx=0;exitDy=0;" edge="1" parent="1" source="Rin7xcSolppz4vYMrdlY-3" target="Rin7xcSolppz4vYMrdlY-20">
          <mxGeometry width="50" height="50" relative="1" as="geometry">
            <mxPoint x="170" y="34" as="sourcePoint" />
            <mxPoint x="220" y="-16" as="targetPoint" />
          </mxGeometry>
        </mxCell>
        <mxCell id="Rin7xcSolppz4vYMrdlY-29" value="" style="endArrow=none;html=1;rounded=0;fontSize=12;startSize=8;endSize=8;curved=1;entryX=0.5;entryY=1;entryDx=0;entryDy=0;exitX=0.5;exitY=0;exitDx=0;exitDy=0;" edge="1" parent="1" source="Rin7xcSolppz4vYMrdlY-22" target="Rin7xcSolppz4vYMrdlY-20">
          <mxGeometry width="50" height="50" relative="1" as="geometry">
            <mxPoint x="170" y="34" as="sourcePoint" />
            <mxPoint x="220" y="-16" as="targetPoint" />
          </mxGeometry>
        </mxCell>
        <mxCell id="Rin7xcSolppz4vYMrdlY-30" value="" style="endArrow=none;html=1;rounded=0;fontSize=12;startSize=8;endSize=8;curved=1;entryX=0.5;entryY=1;entryDx=0;entryDy=0;exitX=0.5;exitY=0;exitDx=0;exitDy=0;" edge="1" parent="1" source="Rin7xcSolppz4vYMrdlY-21" target="Rin7xcSolppz4vYMrdlY-22">
          <mxGeometry width="50" height="50" relative="1" as="geometry">
            <mxPoint x="170" y="34" as="sourcePoint" />
            <mxPoint x="220" y="-16" as="targetPoint" />
          </mxGeometry>
        </mxCell>
        <mxCell id="Rin7xcSolppz4vYMrdlY-31" value="m" style="text;html=1;align=center;verticalAlign=middle;resizable=0;points=[];autosize=1;strokeColor=none;fillColor=none;fontSize=16;" vertex="1" parent="1">
          <mxGeometry x="50.5" y="-279.5" width="31" height="31" as="geometry" />
        </mxCell>
        <mxCell id="Rin7xcSolppz4vYMrdlY-32" value="n" style="text;html=1;align=center;verticalAlign=middle;resizable=0;points=[];autosize=1;strokeColor=none;fillColor=none;fontSize=16;" vertex="1" parent="1">
          <mxGeometry x="340.5" y="-192.5" width="27" height="31" as="geometry" />
        </mxCell>
        <mxCell id="Rin7xcSolppz4vYMrdlY-33" value="1" style="text;html=1;align=center;verticalAlign=middle;resizable=0;points=[];autosize=1;strokeColor=none;fillColor=none;fontSize=16;" vertex="1" parent="1">
          <mxGeometry x="493.5" y="-132.5" width="27" height="31" as="geometry" />
        </mxCell>
        <mxCell id="Rin7xcSolppz4vYMrdlY-34" value="1" style="text;html=1;align=center;verticalAlign=middle;resizable=0;points=[];autosize=1;strokeColor=none;fillColor=none;fontSize=16;" vertex="1" parent="1">
          <mxGeometry x="496.5" y="-53.5" width="27" height="31" as="geometry" />
        </mxCell>
        <mxCell id="Rin7xcSolppz4vYMrdlY-35" value="" style="endArrow=none;html=1;rounded=0;fontSize=12;startSize=8;endSize=8;curved=1;entryX=0;entryY=0.5;entryDx=0;entryDy=0;exitX=1;exitY=0.5;exitDx=0;exitDy=0;" edge="1" parent="1" source="Rin7xcSolppz4vYMrdlY-21" target="Rin7xcSolppz4vYMrdlY-23">
          <mxGeometry width="50" height="50" relative="1" as="geometry">
            <mxPoint x="462" y="53" as="sourcePoint" />
            <mxPoint x="512" y="3" as="targetPoint" />
          </mxGeometry>
        </mxCell>
        <mxCell id="Rin7xcSolppz4vYMrdlY-37" value="1" style="text;html=1;align=center;verticalAlign=middle;resizable=0;points=[];autosize=1;strokeColor=none;fillColor=none;fontSize=16;" vertex="1" parent="1">
          <mxGeometry x="586.5" y="-11.5" width="27" height="31" as="geometry" />
        </mxCell>
        <mxCell id="Rin7xcSolppz4vYMrdlY-38" value="1" style="text;html=1;align=center;verticalAlign=middle;resizable=0;points=[];autosize=1;strokeColor=none;fillColor=none;fontSize=16;" vertex="1" parent="1">
          <mxGeometry x="-102.5" y="41.5" width="27" height="31" as="geometry" />
        </mxCell>
        <mxCell id="Rin7xcSolppz4vYMrdlY-39" value="" style="endArrow=none;html=1;rounded=0;fontSize=12;startSize=8;endSize=8;curved=1;exitX=1;exitY=0.5;exitDx=0;exitDy=0;entryX=0;entryY=0.5;entryDx=0;entryDy=0;" edge="1" parent="1" source="Rin7xcSolppz4vYMrdlY-18" target="Rin7xcSolppz4vYMrdlY-7">
          <mxGeometry width="50" height="50" relative="1" as="geometry">
            <mxPoint x="197" y="21" as="sourcePoint" />
            <mxPoint x="247" y="-29" as="targetPoint" />
          </mxGeometry>
        </mxCell>
        <mxCell id="Rin7xcSolppz4vYMrdlY-41" value="m" style="text;html=1;align=center;verticalAlign=middle;resizable=0;points=[];autosize=1;strokeColor=none;fillColor=none;fontSize=16;" vertex="1" parent="1">
          <mxGeometry x="20.5" y="-12.5" width="31" height="31" as="geometry" />
        </mxCell>
        <mxCell id="Rin7xcSolppz4vYMrdlY-42" value="n" style="text;html=1;align=center;verticalAlign=middle;resizable=0;points=[];autosize=1;strokeColor=none;fillColor=none;fontSize=16;" vertex="1" parent="1">
          <mxGeometry x="-104.5" y="-139.5" width="27" height="31" as="geometry" />
        </mxCell>
        <mxCell id="Rin7xcSolppz4vYMrdlY-43" value="&lt;span style=&quot;color: rgb(51, 51, 51); font-family: &amp;quot;Open Sans&amp;quot;, &amp;quot;Clear Sans&amp;quot;, &amp;quot;Helvetica Neue&amp;quot;, Helvetica, Arial, &amp;quot;Segoe UI Emoji&amp;quot;, sans-serif; font-size: 16px; orphans: 4; text-align: start; white-space-collapse: preserve;&quot;&gt;Name&lt;/span&gt;" style="ellipse;whiteSpace=wrap;html=1;" vertex="1" parent="1">
          <mxGeometry x="131" y="80" width="76" height="38" as="geometry" />
        </mxCell>
        <mxCell id="Rin7xcSolppz4vYMrdlY-44" value="&lt;span style=&quot;color: rgb(51, 51, 51); font-family: &amp;quot;Open Sans&amp;quot;, &amp;quot;Clear Sans&amp;quot;, &amp;quot;Helvetica Neue&amp;quot;, Helvetica, Arial, &amp;quot;Segoe UI Emoji&amp;quot;, sans-serif; font-size: 16px; orphans: 4; text-align: start; white-space-collapse: preserve;&quot;&gt;Date_Birth&lt;/span&gt;" style="ellipse;whiteSpace=wrap;html=1;" vertex="1" parent="1">
          <mxGeometry x="289" y="43.5" width="76" height="38" as="geometry" />
        </mxCell>
        <mxCell id="Rin7xcSolppz4vYMrdlY-45" value="&lt;span style=&quot;color: rgb(51, 51, 51); font-family: &amp;quot;Open Sans&amp;quot;, &amp;quot;Clear Sans&amp;quot;, &amp;quot;Helvetica Neue&amp;quot;, Helvetica, Arial, &amp;quot;Segoe UI Emoji&amp;quot;, sans-serif; font-size: 16px; orphans: 4; text-align: start; white-space-collapse: preserve;&quot;&gt;StudentID&lt;/span&gt;" style="ellipse;whiteSpace=wrap;html=1;" vertex="1" parent="1">
          <mxGeometry x="59" y="48" width="76" height="38" as="geometry" />
        </mxCell>
        <mxCell id="Rin7xcSolppz4vYMrdlY-46" value="&lt;span style=&quot;color: rgb(51, 51, 51); font-family: &amp;quot;Open Sans&amp;quot;, &amp;quot;Clear Sans&amp;quot;, &amp;quot;Helvetica Neue&amp;quot;, Helvetica, Arial, &amp;quot;Segoe UI Emoji&amp;quot;, sans-serif; font-size: 16px; orphans: 4; text-align: start; white-space-collapse: preserve;&quot;&gt;Gender&lt;/span&gt;" style="ellipse;whiteSpace=wrap;html=1;" vertex="1" parent="1">
          <mxGeometry x="220" y="80" width="76" height="38" as="geometry" />
        </mxCell>
        <mxCell id="Rin7xcSolppz4vYMrdlY-48" value="&lt;span style=&quot;color: rgb(51, 51, 51); font-family: &amp;quot;Open Sans&amp;quot;, &amp;quot;Clear Sans&amp;quot;, &amp;quot;Helvetica Neue&amp;quot;, Helvetica, Arial, &amp;quot;Segoe UI Emoji&amp;quot;, sans-serif; font-size: 16px; orphans: 4; text-align: start; white-space-collapse: preserve;&quot;&gt;ClassID&lt;/span&gt;" style="ellipse;whiteSpace=wrap;html=1;" vertex="1" parent="1">
          <mxGeometry x="307" y="-4" width="76" height="38" as="geometry" />
        </mxCell>
        <mxCell id="Rin7xcSolppz4vYMrdlY-49" value="&lt;span style=&quot;color: rgb(51, 51, 51); font-family: &amp;quot;Open Sans&amp;quot;, &amp;quot;Clear Sans&amp;quot;, &amp;quot;Helvetica Neue&amp;quot;, Helvetica, Arial, &amp;quot;Segoe UI Emoji&amp;quot;, sans-serif; font-size: 16px; orphans: 4; text-align: start; white-space-collapse: preserve;&quot;&gt;GradesID&lt;/span&gt;" style="ellipse;whiteSpace=wrap;html=1;" vertex="1" parent="1">
          <mxGeometry x="-281" y="81" width="76" height="38" as="geometry" />
        </mxCell>
        <mxCell id="Rin7xcSolppz4vYMrdlY-50" value="&lt;span style=&quot;color: rgb(51, 51, 51); font-family: &amp;quot;Open Sans&amp;quot;, &amp;quot;Clear Sans&amp;quot;, &amp;quot;Helvetica Neue&amp;quot;, Helvetica, Arial, &amp;quot;Segoe UI Emoji&amp;quot;, sans-serif; font-size: 16px; orphans: 4; text-align: start; white-space-collapse: preserve;&quot;&gt;ResitGrades&lt;/span&gt;" style="ellipse;whiteSpace=wrap;html=1;" vertex="1" parent="1">
          <mxGeometry x="-45" y="133" width="76" height="38" as="geometry" />
        </mxCell>
        <mxCell id="Rin7xcSolppz4vYMrdlY-51" value="&lt;span style=&quot;color: rgb(51, 51, 51); font-family: &amp;quot;Open Sans&amp;quot;, &amp;quot;Clear Sans&amp;quot;, &amp;quot;Helvetica Neue&amp;quot;, Helvetica, Arial, &amp;quot;Segoe UI Emoji&amp;quot;, sans-serif; font-size: 16px; orphans: 4; text-align: start; white-space-collapse: preserve;&quot;&gt;Grades&lt;/span&gt;" style="ellipse;whiteSpace=wrap;html=1;" vertex="1" parent="1">
          <mxGeometry x="-116" y="174" width="76" height="38" as="geometry" />
        </mxCell>
        <mxCell id="Rin7xcSolppz4vYMrdlY-52" value="&lt;span style=&quot;color: rgb(51, 51, 51); font-family: &amp;quot;Open Sans&amp;quot;, &amp;quot;Clear Sans&amp;quot;, &amp;quot;Helvetica Neue&amp;quot;, Helvetica, Arial, &amp;quot;Segoe UI Emoji&amp;quot;, sans-serif; font-size: 16px; orphans: 4; text-align: start; white-space-collapse: preserve;&quot;&gt;CourseID&lt;/span&gt;" style="ellipse;whiteSpace=wrap;html=1;" vertex="1" parent="1">
          <mxGeometry x="-205" y="171" width="76" height="38" as="geometry" />
        </mxCell>
        <mxCell id="Rin7xcSolppz4vYMrdlY-53" value="&lt;span style=&quot;color: rgb(51, 51, 51); font-family: &amp;quot;Open Sans&amp;quot;, &amp;quot;Clear Sans&amp;quot;, &amp;quot;Helvetica Neue&amp;quot;, Helvetica, Arial, &amp;quot;Segoe UI Emoji&amp;quot;, sans-serif; font-size: 16px; orphans: 4; text-align: start; white-space-collapse: preserve;&quot;&gt;StudentID&lt;/span&gt;" style="ellipse;whiteSpace=wrap;html=1;" vertex="1" parent="1">
          <mxGeometry x="-247" y="129" width="76" height="38" as="geometry" />
        </mxCell>
        <mxCell id="Rin7xcSolppz4vYMrdlY-55" value="&lt;span style=&quot;color: rgb(51, 51, 51); font-family: &amp;quot;Open Sans&amp;quot;, &amp;quot;Clear Sans&amp;quot;, &amp;quot;Helvetica Neue&amp;quot;, Helvetica, Arial, &amp;quot;Segoe UI Emoji&amp;quot;, sans-serif; font-size: 16px; orphans: 4; text-align: start; white-space-collapse: preserve;&quot;&gt;Credits&lt;/span&gt;" style="ellipse;whiteSpace=wrap;html=1;" vertex="1" parent="1">
          <mxGeometry x="-276" y="-272" width="76" height="38" as="geometry" />
        </mxCell>
        <mxCell id="Rin7xcSolppz4vYMrdlY-56" value="&lt;span style=&quot;color: rgb(51, 51, 51); font-family: &amp;quot;Open Sans&amp;quot;, &amp;quot;Clear Sans&amp;quot;, &amp;quot;Helvetica Neue&amp;quot;, Helvetica, Arial, &amp;quot;Segoe UI Emoji&amp;quot;, sans-serif; font-size: 16px; orphans: 4; text-align: start; white-space-collapse: preserve;&quot;&gt;CourseName&lt;/span&gt;" style="ellipse;whiteSpace=wrap;html=1;" vertex="1" parent="1">
          <mxGeometry x="-257" y="-354" width="76" height="38" as="geometry" />
        </mxCell>
        <mxCell id="Rin7xcSolppz4vYMrdlY-57" value="&lt;span style=&quot;color: rgb(51, 51, 51); font-family: &amp;quot;Open Sans&amp;quot;, &amp;quot;Clear Sans&amp;quot;, &amp;quot;Helvetica Neue&amp;quot;, Helvetica, Arial, &amp;quot;Segoe UI Emoji&amp;quot;, sans-serif; font-size: 16px; orphans: 4; text-align: start; white-space-collapse: preserve;&quot;&gt;CourseID&lt;/span&gt;" style="ellipse;whiteSpace=wrap;html=1;" vertex="1" parent="1">
          <mxGeometry x="-147" y="-363" width="76" height="38" as="geometry" />
        </mxCell>
        <mxCell id="Rin7xcSolppz4vYMrdlY-58" value="&lt;span style=&quot;color: rgb(51, 51, 51); font-family: &amp;quot;Open Sans&amp;quot;, &amp;quot;Clear Sans&amp;quot;, &amp;quot;Helvetica Neue&amp;quot;, Helvetica, Arial, &amp;quot;Segoe UI Emoji&amp;quot;, sans-serif; font-size: 16px; orphans: 4; text-align: start; white-space-collapse: preserve;&quot;&gt;TeacherID&lt;/span&gt;" style="ellipse;whiteSpace=wrap;html=1;" vertex="1" parent="1">
          <mxGeometry x="67.25" y="-419" width="76" height="38" as="geometry" />
        </mxCell>
        <mxCell id="Rin7xcSolppz4vYMrdlY-59" value="&lt;span style=&quot;color: rgb(51, 51, 51); font-family: &amp;quot;Open Sans&amp;quot;, &amp;quot;Clear Sans&amp;quot;, &amp;quot;Helvetica Neue&amp;quot;, Helvetica, Arial, &amp;quot;Segoe UI Emoji&amp;quot;, sans-serif; font-size: 16px; orphans: 4; text-align: start; white-space-collapse: preserve;&quot;&gt;Name&lt;/span&gt;" style="ellipse;whiteSpace=wrap;html=1;" vertex="1" parent="1">
          <mxGeometry x="155" y="-457" width="76" height="38" as="geometry" />
        </mxCell>
        <mxCell id="Rin7xcSolppz4vYMrdlY-60" value="&lt;span style=&quot;color: rgb(51, 51, 51); font-family: &amp;quot;Open Sans&amp;quot;, &amp;quot;Clear Sans&amp;quot;, &amp;quot;Helvetica Neue&amp;quot;, Helvetica, Arial, &amp;quot;Segoe UI Emoji&amp;quot;, sans-serif; font-size: 16px; orphans: 4; text-align: start; white-space-collapse: preserve;&quot;&gt;Gender&lt;/span&gt;" style="ellipse;whiteSpace=wrap;html=1;" vertex="1" parent="1">
          <mxGeometry x="242" y="-414" width="76" height="37" as="geometry" />
        </mxCell>
        <mxCell id="Rin7xcSolppz4vYMrdlY-62" style="edgeStyle=none;curved=1;rounded=0;orthogonalLoop=1;jettySize=auto;html=1;exitX=0.5;exitY=1;exitDx=0;exitDy=0;fontSize=12;startSize=8;endSize=8;" edge="1" parent="1" source="Rin7xcSolppz4vYMrdlY-60" target="Rin7xcSolppz4vYMrdlY-60">
          <mxGeometry relative="1" as="geometry" />
        </mxCell>
        <mxCell id="Rin7xcSolppz4vYMrdlY-63" value="&lt;span style=&quot;color: rgb(51, 51, 51); font-family: &amp;quot;Open Sans&amp;quot;, &amp;quot;Clear Sans&amp;quot;, &amp;quot;Helvetica Neue&amp;quot;, Helvetica, Arial, &amp;quot;Segoe UI Emoji&amp;quot;, sans-serif; font-size: 16px; orphans: 4; text-align: start; white-space-collapse: preserve;&quot;&gt;ClassID&lt;/span&gt;" style="ellipse;whiteSpace=wrap;html=1;" vertex="1" parent="1">
          <mxGeometry x="67.25" y="-248.5" width="76" height="38" as="geometry" />
        </mxCell>
        <mxCell id="Rin7xcSolppz4vYMrdlY-64" value="&lt;span style=&quot;color: rgb(51, 51, 51); font-family: &amp;quot;Open Sans&amp;quot;, &amp;quot;Clear Sans&amp;quot;, &amp;quot;Helvetica Neue&amp;quot;, Helvetica, Arial, &amp;quot;Segoe UI Emoji&amp;quot;, sans-serif; font-size: 16px; orphans: 4; text-align: start; white-space-collapse: preserve;&quot;&gt;ClassName&lt;/span&gt;" style="ellipse;whiteSpace=wrap;html=1;" vertex="1" parent="1">
          <mxGeometry x="-40" y="-179.5" width="76" height="38" as="geometry" />
        </mxCell>
        <mxCell id="Rin7xcSolppz4vYMrdlY-65" value="&lt;span style=&quot;color: rgb(51, 51, 51); font-family: &amp;quot;Open Sans&amp;quot;, &amp;quot;Clear Sans&amp;quot;, &amp;quot;Helvetica Neue&amp;quot;, Helvetica, Arial, &amp;quot;Segoe UI Emoji&amp;quot;, sans-serif; font-size: 16px; orphans: 4; text-align: start; white-space-collapse: preserve;&quot;&gt;MajorID&lt;/span&gt;" style="ellipse;whiteSpace=wrap;html=1;" vertex="1" parent="1">
          <mxGeometry x="-15" y="-224.5" width="76" height="38" as="geometry" />
        </mxCell>
        <mxCell id="Rin7xcSolppz4vYMrdlY-66" value="&lt;span style=&quot;color: rgb(51, 51, 51); font-family: &amp;quot;Open Sans&amp;quot;, &amp;quot;Clear Sans&amp;quot;, &amp;quot;Helvetica Neue&amp;quot;, Helvetica, Arial, &amp;quot;Segoe UI Emoji&amp;quot;, sans-serif; font-size: 16px; orphans: 4; text-align: start; white-space-collapse: preserve;&quot;&gt;CourseID&lt;/span&gt;" style="ellipse;whiteSpace=wrap;html=1;" vertex="1" parent="1">
          <mxGeometry x="25" y="-78" width="76" height="38" as="geometry" />
        </mxCell>
        <mxCell id="Rin7xcSolppz4vYMrdlY-67" value="&lt;span style=&quot;color: rgb(51, 51, 51); font-family: &amp;quot;Open Sans&amp;quot;, &amp;quot;Clear Sans&amp;quot;, &amp;quot;Helvetica Neue&amp;quot;, Helvetica, Arial, &amp;quot;Segoe UI Emoji&amp;quot;, sans-serif; font-size: 16px; orphans: 4; text-align: start; white-space-collapse: preserve;&quot;&gt;TeacherID&lt;/span&gt;" style="ellipse;whiteSpace=wrap;html=1;" vertex="1" parent="1">
          <mxGeometry x="-19" y="-127" width="76" height="38" as="geometry" />
        </mxCell>
        <mxCell id="Rin7xcSolppz4vYMrdlY-68" value="&lt;span style=&quot;color: rgb(51, 51, 51); font-family: &amp;quot;Open Sans&amp;quot;, &amp;quot;Clear Sans&amp;quot;, &amp;quot;Helvetica Neue&amp;quot;, Helvetica, Arial, &amp;quot;Segoe UI Emoji&amp;quot;, sans-serif; font-size: 16px; orphans: 4; text-align: start; white-space-collapse: preserve;&quot;&gt;MajorID&lt;/span&gt;" style="ellipse;whiteSpace=wrap;html=1;" vertex="1" parent="1">
          <mxGeometry x="586.5" y="-122" width="76" height="38" as="geometry" />
        </mxCell>
        <mxCell id="Rin7xcSolppz4vYMrdlY-69" value="&lt;span style=&quot;color: rgb(51, 51, 51); font-family: &amp;quot;Open Sans&amp;quot;, &amp;quot;Clear Sans&amp;quot;, &amp;quot;Helvetica Neue&amp;quot;, Helvetica, Arial, &amp;quot;Segoe UI Emoji&amp;quot;, sans-serif; font-size: 16px; orphans: 4; text-align: start; white-space-collapse: preserve;&quot;&gt;MaiorName&lt;/span&gt;" style="ellipse;whiteSpace=wrap;html=1;" vertex="1" parent="1">
          <mxGeometry x="585" y="-69" width="76" height="38" as="geometry" />
        </mxCell>
        <mxCell id="Rin7xcSolppz4vYMrdlY-70" value="&lt;span style=&quot;color: rgb(51, 51, 51); font-family: &amp;quot;Open Sans&amp;quot;, &amp;quot;Clear Sans&amp;quot;, &amp;quot;Helvetica Neue&amp;quot;, Helvetica, Arial, &amp;quot;Segoe UI Emoji&amp;quot;, sans-serif; font-size: 16px; orphans: 4; text-align: start; white-space-collapse: preserve;&quot;&gt;Grade&lt;/span&gt;" style="ellipse;whiteSpace=wrap;html=1;" vertex="1" parent="1">
          <mxGeometry x="821" y="-5" width="76" height="38" as="geometry" />
        </mxCell>
        <mxCell id="Rin7xcSolppz4vYMrdlY-71" value="&lt;span style=&quot;color: rgb(51, 51, 51); font-family: &amp;quot;Open Sans&amp;quot;, &amp;quot;Clear Sans&amp;quot;, &amp;quot;Helvetica Neue&amp;quot;, Helvetica, Arial, &amp;quot;Segoe UI Emoji&amp;quot;, sans-serif; font-size: 16px; orphans: 4; text-align: start; white-space-collapse: preserve;&quot;&gt;ClassType&lt;/span&gt;" style="ellipse;whiteSpace=wrap;html=1;" vertex="1" parent="1">
          <mxGeometry x="811" y="52" width="76" height="38" as="geometry" />
        </mxCell>
        <mxCell id="Rin7xcSolppz4vYMrdlY-72" value="&lt;span style=&quot;color: rgb(51, 51, 51); font-family: &amp;quot;Open Sans&amp;quot;, &amp;quot;Clear Sans&amp;quot;, &amp;quot;Helvetica Neue&amp;quot;, Helvetica, Arial, &amp;quot;Segoe UI Emoji&amp;quot;, sans-serif; font-size: 16px; orphans: 4; text-align: start; white-space-collapse: preserve;&quot;&gt;ClassID&lt;/span&gt;" style="ellipse;whiteSpace=wrap;html=1;" vertex="1" parent="1">
          <mxGeometry x="722" y="90" width="76" height="38" as="geometry" />
        </mxCell>
        <mxCell id="Rin7xcSolppz4vYMrdlY-73" value="&lt;span style=&quot;color: rgb(51, 51, 51); font-family: &amp;quot;Open Sans&amp;quot;, &amp;quot;Clear Sans&amp;quot;, &amp;quot;Helvetica Neue&amp;quot;, Helvetica, Arial, &amp;quot;Segoe UI Emoji&amp;quot;, sans-serif; font-size: 16px; orphans: 4; text-align: start; white-space-collapse: preserve;&quot;&gt;MajorID&lt;/span&gt;" style="ellipse;whiteSpace=wrap;html=1;" vertex="1" parent="1">
          <mxGeometry x="626" y="81.5" width="76" height="38" as="geometry" />
        </mxCell>
        <mxCell id="Rin7xcSolppz4vYMrdlY-74" value="&lt;span style=&quot;color: rgb(51, 51, 51); font-family: &amp;quot;Open Sans&amp;quot;, &amp;quot;Clear Sans&amp;quot;, &amp;quot;Helvetica Neue&amp;quot;, Helvetica, Arial, &amp;quot;Segoe UI Emoji&amp;quot;, sans-serif; font-size: 16px; orphans: 4; text-align: start; white-space-collapse: preserve;&quot;&gt;PlanID&lt;/span&gt;" style="ellipse;whiteSpace=wrap;html=1;" vertex="1" parent="1">
          <mxGeometry x="562" y="41.5" width="76" height="38" as="geometry" />
        </mxCell>
        <mxCell id="Rin7xcSolppz4vYMrdlY-76" value="" style="endArrow=none;html=1;rounded=0;fontSize=12;startSize=8;endSize=8;curved=1;entryX=1;entryY=1;entryDx=0;entryDy=0;exitX=0.25;exitY=0;exitDx=0;exitDy=0;" edge="1" parent="1" source="Rin7xcSolppz4vYMrdlY-17" target="Rin7xcSolppz4vYMrdlY-56">
          <mxGeometry width="50" height="50" relative="1" as="geometry">
            <mxPoint x="-152" y="-272" as="sourcePoint" />
            <mxPoint x="88" y="-82" as="targetPoint" />
          </mxGeometry>
        </mxCell>
        <mxCell id="Rin7xcSolppz4vYMrdlY-77" value="" style="endArrow=none;html=1;rounded=0;fontSize=12;startSize=8;endSize=8;curved=1;entryX=0.5;entryY=1;entryDx=0;entryDy=0;" edge="1" parent="1" source="Rin7xcSolppz4vYMrdlY-17" target="Rin7xcSolppz4vYMrdlY-57">
          <mxGeometry width="50" height="50" relative="1" as="geometry">
            <mxPoint x="38" y="-32" as="sourcePoint" />
            <mxPoint x="88" y="-82" as="targetPoint" />
          </mxGeometry>
        </mxCell>
        <mxCell id="Rin7xcSolppz4vYMrdlY-78" value="" style="endArrow=none;html=1;rounded=0;fontSize=12;startSize=8;endSize=8;curved=1;entryX=1;entryY=0.5;entryDx=0;entryDy=0;exitX=0;exitY=0.5;exitDx=0;exitDy=0;" edge="1" parent="1" source="Rin7xcSolppz4vYMrdlY-17" target="Rin7xcSolppz4vYMrdlY-55">
          <mxGeometry width="50" height="50" relative="1" as="geometry">
            <mxPoint x="38" y="-32" as="sourcePoint" />
            <mxPoint x="88" y="-82" as="targetPoint" />
          </mxGeometry>
        </mxCell>
        <mxCell id="Rin7xcSolppz4vYMrdlY-82" value="" style="endArrow=none;html=1;rounded=0;fontSize=12;startSize=8;endSize=8;curved=1;entryX=1;entryY=0.5;entryDx=0;entryDy=0;exitX=0;exitY=0.5;exitDx=0;exitDy=0;" edge="1" parent="1" source="Rin7xcSolppz4vYMrdlY-19" target="Rin7xcSolppz4vYMrdlY-49">
          <mxGeometry width="50" height="50" relative="1" as="geometry">
            <mxPoint x="38" y="-32" as="sourcePoint" />
            <mxPoint x="88" y="-82" as="targetPoint" />
          </mxGeometry>
        </mxCell>
        <mxCell id="Rin7xcSolppz4vYMrdlY-83" value="" style="endArrow=none;html=1;rounded=0;fontSize=12;startSize=8;endSize=8;curved=1;exitX=0;exitY=0.75;exitDx=0;exitDy=0;" edge="1" parent="1" source="Rin7xcSolppz4vYMrdlY-19" target="Rin7xcSolppz4vYMrdlY-53">
          <mxGeometry width="50" height="50" relative="1" as="geometry">
            <mxPoint x="38" y="-32" as="sourcePoint" />
            <mxPoint x="88" y="-82" as="targetPoint" />
          </mxGeometry>
        </mxCell>
        <mxCell id="Rin7xcSolppz4vYMrdlY-84" value="" style="endArrow=none;html=1;rounded=0;fontSize=12;startSize=8;endSize=8;curved=1;exitX=0.653;exitY=0.016;exitDx=0;exitDy=0;exitPerimeter=0;entryX=0.25;entryY=1;entryDx=0;entryDy=0;" edge="1" parent="1" source="Rin7xcSolppz4vYMrdlY-52" target="Rin7xcSolppz4vYMrdlY-19">
          <mxGeometry width="50" height="50" relative="1" as="geometry">
            <mxPoint x="38" y="-32" as="sourcePoint" />
            <mxPoint x="88" y="-82" as="targetPoint" />
          </mxGeometry>
        </mxCell>
        <mxCell id="Rin7xcSolppz4vYMrdlY-85" value="" style="endArrow=none;html=1;rounded=0;fontSize=12;startSize=8;endSize=8;curved=1;entryX=0.382;entryY=0;entryDx=0;entryDy=0;entryPerimeter=0;exitX=0.5;exitY=1;exitDx=0;exitDy=0;" edge="1" parent="1" source="Rin7xcSolppz4vYMrdlY-19" target="Rin7xcSolppz4vYMrdlY-51">
          <mxGeometry width="50" height="50" relative="1" as="geometry">
            <mxPoint x="38" y="-32" as="sourcePoint" />
            <mxPoint x="88" y="-82" as="targetPoint" />
          </mxGeometry>
        </mxCell>
        <mxCell id="Rin7xcSolppz4vYMrdlY-86" value="" style="endArrow=none;html=1;rounded=0;fontSize=12;startSize=8;endSize=8;curved=1;entryX=0.5;entryY=0;entryDx=0;entryDy=0;exitX=0.75;exitY=1;exitDx=0;exitDy=0;" edge="1" parent="1" source="Rin7xcSolppz4vYMrdlY-19" target="Rin7xcSolppz4vYMrdlY-50">
          <mxGeometry width="50" height="50" relative="1" as="geometry">
            <mxPoint x="38" y="-32" as="sourcePoint" />
            <mxPoint x="88" y="-82" as="targetPoint" />
          </mxGeometry>
        </mxCell>
        <mxCell id="Rin7xcSolppz4vYMrdlY-87" value="" style="endArrow=none;html=1;rounded=0;fontSize=12;startSize=8;endSize=8;curved=1;entryX=1;entryY=1;entryDx=0;entryDy=0;exitX=0.25;exitY=0;exitDx=0;exitDy=0;" edge="1" parent="1" source="Rin7xcSolppz4vYMrdlY-3" target="Rin7xcSolppz4vYMrdlY-63">
          <mxGeometry width="50" height="50" relative="1" as="geometry">
            <mxPoint x="257" y="-32" as="sourcePoint" />
            <mxPoint x="307" y="-82" as="targetPoint" />
          </mxGeometry>
        </mxCell>
        <mxCell id="Rin7xcSolppz4vYMrdlY-88" value="" style="endArrow=none;html=1;rounded=0;fontSize=12;startSize=8;endSize=8;curved=1;entryX=1;entryY=0.5;entryDx=0;entryDy=0;exitX=0;exitY=0;exitDx=0;exitDy=0;" edge="1" parent="1" source="Rin7xcSolppz4vYMrdlY-3" target="Rin7xcSolppz4vYMrdlY-65">
          <mxGeometry width="50" height="50" relative="1" as="geometry">
            <mxPoint x="257" y="-32" as="sourcePoint" />
            <mxPoint x="307" y="-82" as="targetPoint" />
          </mxGeometry>
        </mxCell>
        <mxCell id="Rin7xcSolppz4vYMrdlY-89" value="" style="endArrow=none;html=1;rounded=0;fontSize=12;startSize=8;endSize=8;curved=1;entryX=1;entryY=0.5;entryDx=0;entryDy=0;exitX=0;exitY=0.5;exitDx=0;exitDy=0;" edge="1" parent="1" source="Rin7xcSolppz4vYMrdlY-3" target="Rin7xcSolppz4vYMrdlY-64">
          <mxGeometry width="50" height="50" relative="1" as="geometry">
            <mxPoint x="257" y="-32" as="sourcePoint" />
            <mxPoint x="307" y="-82" as="targetPoint" />
          </mxGeometry>
        </mxCell>
        <mxCell id="Rin7xcSolppz4vYMrdlY-90" value="" style="endArrow=none;html=1;rounded=0;fontSize=12;startSize=8;endSize=8;curved=1;entryX=0.995;entryY=0.321;entryDx=0;entryDy=0;entryPerimeter=0;exitX=0;exitY=0.75;exitDx=0;exitDy=0;" edge="1" parent="1" source="Rin7xcSolppz4vYMrdlY-3" target="Rin7xcSolppz4vYMrdlY-67">
          <mxGeometry width="50" height="50" relative="1" as="geometry">
            <mxPoint x="257" y="-32" as="sourcePoint" />
            <mxPoint x="307" y="-82" as="targetPoint" />
          </mxGeometry>
        </mxCell>
        <mxCell id="Rin7xcSolppz4vYMrdlY-91" value="" style="endArrow=none;html=1;rounded=0;fontSize=12;startSize=8;endSize=8;curved=1;entryX=0.153;entryY=1.025;entryDx=0;entryDy=0;entryPerimeter=0;exitX=1;exitY=0;exitDx=0;exitDy=0;" edge="1" parent="1" source="Rin7xcSolppz4vYMrdlY-66" target="Rin7xcSolppz4vYMrdlY-3">
          <mxGeometry width="50" height="50" relative="1" as="geometry">
            <mxPoint x="257" y="-32" as="sourcePoint" />
            <mxPoint x="307" y="-82" as="targetPoint" />
          </mxGeometry>
        </mxCell>
        <mxCell id="Rin7xcSolppz4vYMrdlY-92" value="" style="endArrow=none;html=1;rounded=0;fontSize=12;startSize=8;endSize=8;curved=1;entryX=0.691;entryY=0.974;entryDx=0;entryDy=0;entryPerimeter=0;exitX=0;exitY=0;exitDx=0;exitDy=0;" edge="1" parent="1" source="Rin7xcSolppz4vYMrdlY-1" target="Rin7xcSolppz4vYMrdlY-58">
          <mxGeometry width="50" height="50" relative="1" as="geometry">
            <mxPoint x="257" y="-32" as="sourcePoint" />
            <mxPoint x="307" y="-82" as="targetPoint" />
          </mxGeometry>
        </mxCell>
        <mxCell id="Rin7xcSolppz4vYMrdlY-93" value="" style="endArrow=none;html=1;rounded=0;fontSize=12;startSize=8;endSize=8;curved=1;entryX=0.5;entryY=1;entryDx=0;entryDy=0;exitX=0.5;exitY=0;exitDx=0;exitDy=0;" edge="1" parent="1" source="Rin7xcSolppz4vYMrdlY-1" target="Rin7xcSolppz4vYMrdlY-59">
          <mxGeometry width="50" height="50" relative="1" as="geometry">
            <mxPoint x="257" y="-32" as="sourcePoint" />
            <mxPoint x="307" y="-82" as="targetPoint" />
          </mxGeometry>
        </mxCell>
        <mxCell id="Rin7xcSolppz4vYMrdlY-94" value="" style="endArrow=none;html=1;rounded=0;fontSize=12;startSize=8;endSize=8;curved=1;entryX=0.403;entryY=1.016;entryDx=0;entryDy=0;entryPerimeter=0;exitX=0.75;exitY=0;exitDx=0;exitDy=0;" edge="1" parent="1" source="Rin7xcSolppz4vYMrdlY-1" target="Rin7xcSolppz4vYMrdlY-60">
          <mxGeometry width="50" height="50" relative="1" as="geometry">
            <mxPoint x="257" y="-32" as="sourcePoint" />
            <mxPoint x="307" y="-82" as="targetPoint" />
          </mxGeometry>
        </mxCell>
        <mxCell id="Rin7xcSolppz4vYMrdlY-95" value="" style="endArrow=none;html=1;rounded=0;fontSize=12;startSize=8;endSize=8;curved=1;entryX=0;entryY=0.5;entryDx=0;entryDy=0;exitX=1;exitY=0.5;exitDx=0;exitDy=0;" edge="1" parent="1" source="Rin7xcSolppz4vYMrdlY-7" target="Rin7xcSolppz4vYMrdlY-48">
          <mxGeometry width="50" height="50" relative="1" as="geometry">
            <mxPoint x="257" y="-32" as="sourcePoint" />
            <mxPoint x="307" y="-82" as="targetPoint" />
          </mxGeometry>
        </mxCell>
        <mxCell id="Rin7xcSolppz4vYMrdlY-96" value="" style="endArrow=none;html=1;rounded=0;fontSize=12;startSize=8;endSize=8;curved=1;entryX=0;entryY=0;entryDx=0;entryDy=0;exitX=1;exitY=1;exitDx=0;exitDy=0;" edge="1" parent="1" source="Rin7xcSolppz4vYMrdlY-7" target="Rin7xcSolppz4vYMrdlY-44">
          <mxGeometry width="50" height="50" relative="1" as="geometry">
            <mxPoint x="257" y="-32" as="sourcePoint" />
            <mxPoint x="307" y="-82" as="targetPoint" />
          </mxGeometry>
        </mxCell>
        <mxCell id="Rin7xcSolppz4vYMrdlY-97" value="" style="endArrow=none;html=1;rounded=0;fontSize=12;startSize=8;endSize=8;curved=1;entryX=0.5;entryY=0;entryDx=0;entryDy=0;exitX=0.821;exitY=0.98;exitDx=0;exitDy=0;exitPerimeter=0;" edge="1" parent="1" source="Rin7xcSolppz4vYMrdlY-7" target="Rin7xcSolppz4vYMrdlY-46">
          <mxGeometry width="50" height="50" relative="1" as="geometry">
            <mxPoint x="257" y="-32" as="sourcePoint" />
            <mxPoint x="307" y="-82" as="targetPoint" />
          </mxGeometry>
        </mxCell>
        <mxCell id="Rin7xcSolppz4vYMrdlY-98" value="" style="endArrow=none;html=1;rounded=0;fontSize=12;startSize=8;endSize=8;curved=1;entryX=0.5;entryY=0;entryDx=0;entryDy=0;exitX=0.5;exitY=1;exitDx=0;exitDy=0;" edge="1" parent="1" source="Rin7xcSolppz4vYMrdlY-7" target="Rin7xcSolppz4vYMrdlY-43">
          <mxGeometry width="50" height="50" relative="1" as="geometry">
            <mxPoint x="257" y="-32" as="sourcePoint" />
            <mxPoint x="307" y="-82" as="targetPoint" />
          </mxGeometry>
        </mxCell>
        <mxCell id="Rin7xcSolppz4vYMrdlY-99" value="" style="endArrow=none;html=1;rounded=0;fontSize=12;startSize=8;endSize=8;curved=1;entryX=0.632;entryY=0.053;entryDx=0;entryDy=0;entryPerimeter=0;exitX=0.25;exitY=1;exitDx=0;exitDy=0;" edge="1" parent="1" source="Rin7xcSolppz4vYMrdlY-7" target="Rin7xcSolppz4vYMrdlY-45">
          <mxGeometry width="50" height="50" relative="1" as="geometry">
            <mxPoint x="257" y="-32" as="sourcePoint" />
            <mxPoint x="307" y="-82" as="targetPoint" />
          </mxGeometry>
        </mxCell>
        <mxCell id="Rin7xcSolppz4vYMrdlY-100" value="" style="endArrow=none;html=1;rounded=0;fontSize=12;startSize=8;endSize=8;curved=1;entryX=0;entryY=0.5;entryDx=0;entryDy=0;exitX=1;exitY=0.25;exitDx=0;exitDy=0;" edge="1" parent="1" source="Rin7xcSolppz4vYMrdlY-22" target="Rin7xcSolppz4vYMrdlY-68">
          <mxGeometry width="50" height="50" relative="1" as="geometry">
            <mxPoint x="580" y="-32" as="sourcePoint" />
            <mxPoint x="630" y="-82" as="targetPoint" />
          </mxGeometry>
        </mxCell>
        <mxCell id="Rin7xcSolppz4vYMrdlY-101" value="" style="endArrow=none;html=1;rounded=0;fontSize=12;startSize=8;endSize=8;curved=1;entryX=0;entryY=0;entryDx=0;entryDy=0;exitX=1;exitY=0.5;exitDx=0;exitDy=0;" edge="1" parent="1" source="Rin7xcSolppz4vYMrdlY-22" target="Rin7xcSolppz4vYMrdlY-69">
          <mxGeometry width="50" height="50" relative="1" as="geometry">
            <mxPoint x="580" y="-32" as="sourcePoint" />
            <mxPoint x="630" y="-82" as="targetPoint" />
          </mxGeometry>
        </mxCell>
        <mxCell id="Rin7xcSolppz4vYMrdlY-102" value="" style="endArrow=none;html=1;rounded=0;fontSize=12;startSize=8;endSize=8;curved=1;entryX=0;entryY=0;entryDx=0;entryDy=0;exitX=1;exitY=0.25;exitDx=0;exitDy=0;" edge="1" parent="1" source="Rin7xcSolppz4vYMrdlY-23" target="Rin7xcSolppz4vYMrdlY-70">
          <mxGeometry width="50" height="50" relative="1" as="geometry">
            <mxPoint x="580" y="-32" as="sourcePoint" />
            <mxPoint x="630" y="-82" as="targetPoint" />
          </mxGeometry>
        </mxCell>
        <mxCell id="Rin7xcSolppz4vYMrdlY-103" value="" style="endArrow=none;html=1;rounded=0;fontSize=12;startSize=8;endSize=8;curved=1;entryX=0.253;entryY=-0.011;entryDx=0;entryDy=0;entryPerimeter=0;exitX=1;exitY=0.75;exitDx=0;exitDy=0;" edge="1" parent="1" source="Rin7xcSolppz4vYMrdlY-23" target="Rin7xcSolppz4vYMrdlY-71">
          <mxGeometry width="50" height="50" relative="1" as="geometry">
            <mxPoint x="580" y="-32" as="sourcePoint" />
            <mxPoint x="630" y="-82" as="targetPoint" />
          </mxGeometry>
        </mxCell>
        <mxCell id="Rin7xcSolppz4vYMrdlY-104" value="" style="endArrow=none;html=1;rounded=0;fontSize=12;startSize=8;endSize=8;curved=1;entryX=0.5;entryY=0;entryDx=0;entryDy=0;exitX=0.75;exitY=1;exitDx=0;exitDy=0;" edge="1" parent="1" source="Rin7xcSolppz4vYMrdlY-23" target="Rin7xcSolppz4vYMrdlY-72">
          <mxGeometry width="50" height="50" relative="1" as="geometry">
            <mxPoint x="580" y="-32" as="sourcePoint" />
            <mxPoint x="630" y="-82" as="targetPoint" />
          </mxGeometry>
        </mxCell>
        <mxCell id="Rin7xcSolppz4vYMrdlY-105" value="" style="endArrow=none;html=1;rounded=0;fontSize=12;startSize=8;endSize=8;curved=1;entryX=0;entryY=0.75;entryDx=0;entryDy=0;exitX=1;exitY=0;exitDx=0;exitDy=0;" edge="1" parent="1" source="Rin7xcSolppz4vYMrdlY-74" target="Rin7xcSolppz4vYMrdlY-23">
          <mxGeometry width="50" height="50" relative="1" as="geometry">
            <mxPoint x="580" y="-32" as="sourcePoint" />
            <mxPoint x="630" y="-82" as="targetPoint" />
          </mxGeometry>
        </mxCell>
        <mxCell id="Rin7xcSolppz4vYMrdlY-106" value="" style="endArrow=none;html=1;rounded=0;fontSize=12;startSize=8;endSize=8;curved=1;entryX=0.25;entryY=1;entryDx=0;entryDy=0;exitX=0.592;exitY=0.034;exitDx=0;exitDy=0;exitPerimeter=0;" edge="1" parent="1" source="Rin7xcSolppz4vYMrdlY-73" target="Rin7xcSolppz4vYMrdlY-23">
          <mxGeometry width="50" height="50" relative="1" as="geometry">
            <mxPoint x="580" y="-32" as="sourcePoint" />
            <mxPoint x="630" y="-82" as="targetPoint" />
          </mxGeometry>
        </mxCell>
      </root>
    </mxGraphModel>
  </diagram>
</mxfile>
